<svg id="Capa_1" enable-background="new 0 0 512 512" height="512" viewBox="0 0 512 512" width="512" xmlns="http://www.w3.org/2000/svg"><g><g><g><path d="m467 479h-422c-24.813 0-45-20.187-45-45v-308c0-24.813 20.187-45 45-45h422c24.813 0 45 20.188 45 45v308c0 24.813-20.187 45-45 45zm-422-368c-8.271 0-15 6.729-15 15v308c0 8.271 6.729 15 15 15h422c8.271 0 15-6.729 15-15v-308c0-8.271-6.729-15-15-15z" fill="#222221"/></g><g><path d="m432 199h-128c-8.284 0-15-6.716-15-15s6.716-15 15-15h128c8.284 0 15 6.716 15 15s-6.716 15-15 15z" fill="#222221"/></g><g><path d="m178 415h-36c-24.813 0-45-20.187-45-45v-180c0-24.813 20.187-45 45-45h36c24.813 0 45 20.188 45 45v180c0 24.813-20.187 45-45 45zm-36-240c-8.271 0-15 6.729-15 15v180c0 8.271 6.729 15 15 15h36c8.271 0 15-6.729 15-15v-180c0-8.271-6.729-15-15-15z" fill="#222221"/></g><g><path d="m160 175c-8.284 0-15-6.716-15-15v-112c0-8.284 6.716-15 15-15s15 6.716 15 15v112c0 8.284-6.716 15-15 15z" fill="#222221"/></g><g fill="#222221"><circle cx="303.999" cy="248.003" r="15"/><circle cx="368" cy="248.003" r="15"/><circle cx="432.001" cy="248.003" r="15"/><circle cx="303.999" cy="312.001" r="15"/><circle cx="368" cy="312.001" r="15"/><circle cx="432.001" cy="312.001" r="15"/><circle cx="303.999" cy="375.999" r="15"/><circle cx="368" cy="375.999" r="15"/><circle cx="432.001" cy="375.999" r="15"/></g></g></g></svg>